<svg xmlns="http://www.w3.org/2000/svg" width="16px" height="16px" viewBox="0 0 2048 2048">
	<rect fill-opacity="0.9" x="0" y="0" width="2048" height="2048" rx="128" ry="128" fill="#d02e2e"></rect>
	<g transform="scale(0.8)"><path fill-opacity="0.9" transform="translate(696.32, 2004.68) rotate(180) scale(-1, 1)" fill="#ffffff" d="M1047 406Q1047 208 905 94T508 -20Q274 -20 94 68V356Q242 290 344 263T532 236Q634 236 688 275T743 391Q743 434 719 467T649 532T459 631Q325 694 258 752T151 887T111 1067Q111 1261 242 1372T606 1483Q720 1483 823 1456T1040 1380L940 1139Q823 1187 747 1206T596 1225Q508 1225 461 1184T414 1077Q414 1036 433 1006T493 947T690 844Q895 746 971 648T1047 406Z"></path></g>
</svg>